<svg width="87" height="19" viewBox="0 0 87 19" fill="none" xmlns="http://www.w3.org/2000/svg">
<path d="M0.201729 18.5217V1.72173H8.14573C10.0017 1.72173 11.6337 2.06573 13.0417 2.75373C14.4497 3.44173 15.5457 4.40973 16.3297 5.65773C17.1297 6.90573 17.5297 8.39373 17.5297 10.1217C17.5297 11.8337 17.1297 13.3217 16.3297 14.5857C15.5457 15.8337 14.4497 16.8017 13.0417 17.4897C11.6337 18.1777 10.0017 18.5217 8.14573 18.5217H0.201729ZM4.95373 14.7297H7.95373C8.91373 14.7297 9.74573 14.5537 10.4497 14.2017C11.1697 13.8337 11.7297 13.3057 12.1297 12.6177C12.5297 11.9137 12.7297 11.0817 12.7297 10.1217C12.7297 9.14573 12.5297 8.31373 12.1297 7.62573C11.7297 6.93773 11.1697 6.41773 10.4497 6.06573C9.74573 5.69773 8.91373 5.51373 7.95373 5.51373H4.95373V14.7297ZM22.9099 18.5217L18.2779 5.51373H22.5979L26.2699 16.3857H24.2059L28.0219 5.51373H31.9099L35.5819 16.3857H33.5659L37.3579 5.51373H41.3659L36.7339 18.5217H32.3179L29.1979 9.52173H30.5419L27.3259 18.5217H22.9099ZM49.2236 18.7377C47.6876 18.7377 46.3436 18.4497 45.1916 17.8737C44.0556 17.2817 43.1676 16.4817 42.5276 15.4737C41.9036 14.4497 41.5916 13.2897 41.5916 11.9937C41.5916 10.6977 41.8956 9.54573 42.5036 8.53773C43.1276 7.51373 43.9836 6.72173 45.0716 6.16173C46.1596 5.58573 47.3836 5.29773 48.7436 5.29773C50.0236 5.29773 51.1916 5.56173 52.2476 6.08973C53.3036 6.60173 54.1436 7.36173 54.7676 8.36973C55.3916 9.37773 55.7036 10.6017 55.7036 12.0417C55.7036 12.2017 55.6956 12.3857 55.6796 12.5937C55.6636 12.8017 55.6476 12.9937 55.6316 13.1697H45.3356V10.7697H53.2076L51.4796 11.4417C51.4956 10.8497 51.3836 10.3377 51.1436 9.90573C50.9196 9.47373 50.5996 9.13773 50.1836 8.89773C49.7836 8.65773 49.3116 8.53773 48.7676 8.53773C48.2236 8.53773 47.7436 8.65773 47.3276 8.89773C46.9276 9.13773 46.6156 9.48173 46.3916 9.92973C46.1676 10.3617 46.0556 10.8737 46.0556 11.4657V12.1617C46.0556 12.8017 46.1836 13.3537 46.4396 13.8177C46.7116 14.2817 47.0956 14.6417 47.5916 14.8977C48.0876 15.1377 48.6796 15.2577 49.3676 15.2577C50.0076 15.2577 50.5516 15.1697 50.9996 14.9937C51.4636 14.8017 51.9196 14.5137 52.3676 14.1297L54.7676 16.6257C54.1436 17.3137 53.3756 17.8417 52.4636 18.2097C51.5516 18.5617 50.4716 18.7377 49.2236 18.7377ZM57.806 18.5217V0.713727H62.366V18.5217H57.806ZM65.3295 18.5217V0.713727H69.8895V18.5217H65.3295ZM79.3809 18.7377C77.9569 18.7377 76.6929 18.4497 75.5889 17.8737C74.4849 17.2977 73.6129 16.5057 72.9729 15.4977C72.3489 14.4737 72.0369 13.3057 72.0369 11.9937C72.0369 10.6817 72.3489 9.52173 72.9729 8.51373C73.6129 7.50573 74.4849 6.72173 75.5889 6.16173C76.6929 5.58573 77.9569 5.29773 79.3809 5.29773C80.8049 5.29773 82.0689 5.58573 83.1729 6.16173C84.2929 6.72173 85.1649 7.50573 85.7889 8.51373C86.4129 9.52173 86.7249 10.6817 86.7249 11.9937C86.7249 13.3057 86.4129 14.4737 85.7889 15.4977C85.1649 16.5057 84.2929 17.2977 83.1729 17.8737C82.0689 18.4497 80.8049 18.7377 79.3809 18.7377ZM79.3809 15.1137C79.9089 15.1137 80.3729 14.9937 80.7729 14.7537C81.1889 14.5137 81.5169 14.1617 81.7569 13.6977C81.9969 13.2177 82.1169 12.6497 82.1169 11.9937C82.1169 11.3377 81.9969 10.7857 81.7569 10.3377C81.5169 9.87373 81.1889 9.52173 80.7729 9.28173C80.3729 9.04173 79.9089 8.92173 79.3809 8.92173C78.8689 8.92173 78.4049 9.04173 77.9889 9.28173C77.5889 9.52173 77.2609 9.87373 77.0049 10.3377C76.7649 10.7857 76.6449 11.3377 76.6449 11.9937C76.6449 12.6497 76.7649 13.2177 77.0049 13.6977C77.2609 14.1617 77.5889 14.5137 77.9889 14.7537C78.4049 14.9937 78.8689 15.1137 79.3809 15.1137Z" fill="#2A1B12"/>
</svg>
